<svg t="1649513649031" viewBox="0 0 1024 1024" version="1.1" xmlns="http://www.w3.org/2000/svg" p-id="1315" xmlns:xlink="http://www.w3.org/1999/xlink"><defs><style type="text/css"></style></defs><path d="M259.774512 0h-63.761861c-21.849302 0-39.566884 26.457302-39.566884 59.082419v905.823255c0 32.625116 17.717581 59.082419 39.566884 59.082419h63.761861c21.849302 0 39.566884-26.457302 39.566883-59.082419V59.082419C299.341395 26.457302 281.623814 0 259.774512 0z m568.20093 0h-63.761861c-21.849302 0-39.566884 26.457302-39.566883 59.082419v905.823255c0 32.625116 17.717581 59.082419 39.566883 59.082419h63.761861c21.849302 0 39.566884-26.457302 39.566884-59.082419V59.082419C867.542326 26.457302 849.824744 0 827.975442 0z m15.741023 0" p-id="1316" fill="#ffffff"></path></svg>