<svg t="1649513654383" viewBox="0 0 1024 1024" version="1.1" xmlns="http://www.w3.org/2000/svg" p-id="1513" xmlns:xlink="http://www.w3.org/1999/xlink"><defs><style type="text/css"></style></defs><path d="M536.873674 69.227163c-10.251907 0-21.039628 3.584-29.743627 10.775814L250.749023 301.520372H70.763163c-38.971535 0-70.251163 31.279628-70.251163 69.739163L0 674.816c0 38.459535 31.791628 70.239256 70.763163 70.239256h182.54586l252.797024 198.953674a45.353674 45.353674 0 0 0 29.743627 10.763907c24.587907 0 47.163535-18.967814 47.163535-46.651535l1.024-792.21879c0.523907-27.707535-22.551814-46.675349-47.163535-46.675349z m-23.599627 791.19479l-216.885582-170.746046a69.774884 69.774884 0 0 0-43.067535-14.859907H69.739163l1.035907-303.056372 179.973953-0.500093c16.931721 0 32.815628-6.167814 45.639442-16.931721l217.921488-188.189767-1.035906 694.283906z m207.169488-578.393302c-15.907721-10.752-37.959442-6.144-48.211349 9.751814-10.752 15.883907-6.144 37.935628 9.751814 48.199442 54.343442 36.411535 87.170977 96.398884 87.170977 160.49414 0 62.035349-30.767628 120.498605-82.03907 156.898232a34.685023 34.685023 0 0 0-8.215814 48.711442c6.667907 9.751814 17.419907 14.883721 28.719628 14.883721 7.168 0 14.336-2.059907 19.991814-6.667907 69.75107-49.735442 111.270698-129.738419 111.270698-214.349395 0-87.170977-44.091535-168.68614-118.438698-217.921489z m0 0" p-id="1514" fill="#ffffff"></path><path d="M868.62586 154.362047c-14.359814-12.823814-36.411535-11.799814-49.235348 2.56-12.811907 14.359814-11.776 36.399628 2.56 49.211534 84.110884 75.394977 132.298419 182.557767 132.298418 294.340466 0 109.222698-44.079628 210.741581-124.082604 286.124651-13.835907 13.323907-14.859907 35.375628-1.536 49.211535 6.667907 7.191814 15.895814 10.775814 25.635721 10.775814a33.696744 33.696744 0 0 0 24.09972-9.751814C972.204651 747.615256 1024 628.140651 1024 499.95014c0.500093-130.750512-55.903256-256.881116-155.37414-345.588093z m0 0" p-id="1515" fill="#ffffff"></path></svg>