<svg t="1653214832149" class="icon" viewBox="0 0 1024 1024" version="1.1" xmlns="http://www.w3.org/2000/svg" p-id="1738" width="200" height="200"><path d="M290.90108287 53.63224997c135.97055044-65.40206923 300.00410702-67.7504387 436.79658688-3.28771552-4.22706374 5.7535038-12.68119123 17.14309148-16.90825498 22.77917648-126.3422382-57.76987117-275.46365398-55.6563393-401.57105568 1.29160245-4.57931905-5.28382968-13.73795717-15.61665254-18.31727622-20.78306341z" fill="#EEA44F" p-id="1739"></path><path d="M164.67626236 92.85000839c-0.23483651-63.40595617 91.35154461-92.17347294 126.22482051-39.21775842 4.57931905 5.16641088 13.73795717 15.49923373 18.31727622 20.78306341-0.70451063 25.59721898-2.8180425 52.01636737-21.60499283 71.74266594-1.87869537-21.13531873-3.1702978-42.27063744-3.75738964-63.40595617L277.1631257 80.52107249c-16.20374435-9.27605692-30.99846745-27.47591433-51.66411316-23.01401408-21.72241053 9.15863811-39.21775844 25.94947428-60.82275018 35.34294998z" fill="#8F0D00" p-id="1740"></path><path d="M737.20856317 37.66334322c25.83205658-12.56377243 58.12212648-22.19208465 83.83676426-3.75739073 19.02178685 13.50312066 44.61900582 36.86938896 27.00624021 61.29242429-15.73407024-11.38958878-29.00235439-25.71463778-44.03191399-37.80873609-22.30950346-6.57543213-44.26675051-14.09021248-66.81109048-19.72629747z" fill="#A03E0E" p-id="1741"></path><path d="M309.21835909 74.41531338c126.10740169-56.94794174 275.22881748-59.06147362 401.57105568-1.29160245-5.40124848 24.65787184 1.05676594 48.25897775 18.66953154 66.10657984-0.35225531 12.44635472-0.35225531 24.77529065-0.46967412 37.10422657 17.02567377 2.23095067 34.05134646 4.34448255 50.95960143 6.69285094l-23.13143177 18.90436803c-61.87951611 3.63997193-128.57318889 29.00235439-161.56776942 84.4238572-20.6656446 40.15710556 22.30950346 86.18513264 64.22788449 75.26521796 5.04899317 3.99222724 15.26439723 11.9766806 20.3133904 15.96890783-22.89659528 7.04510625-45.79319055 13.73795717-68.80720464 20.4308081-68.57236703 154.40524546-232.48850593 261.96053332-402.51040282 254.79800829 27.59333314 35.69520531 57.30019705 69.74655177 86.30255144 104.38499116l-19.72629748-0.46967414C208.47333986 711.41033628 173.13038985 635.91028071 155.04795014 559.7057156c-5.51866619 50.0202543 8.10187218 98.86632386 29.70686501 143.48532969-31.11588626-25.01012716-55.89117581-62.81886435-98.63148736-67.9852752-6.81026973 13.38570186-13.62053837 26.88882252-20.43080809 40.39194316C30.93666261 581.89780027 28.47087543 479.15666687 50.78037778 382.28645606c45.20609874-13.85537597 84.18901957-44.14933281 131.39123138-51.89894857 32.29006989-3.99222724 65.16723272-3.99222724 97.57472143-0.35225531 36.28229713 4.93157437 67.3981834 27.35849553 103.44564402 33.11199932 34.40360177-2.9354613 62.34919023-44.50158811 44.50158702-76.67424031-22.07466585-40.86161619-66.57625397-64.5801409-109.90365735-76.90907572-71.39040953-18.31727622-143.6027485 1.87869537-214.1712297 13.03344654-2.23095067-0.58709182-6.57543213-1.87869537-8.68896399-2.58320598 44.97126113-51.31185674 91.11670701-102.50629579 148.88657817-139.96277767l33.34683694 0.46967413 6.69285092 2.23095066c0.58709182 21.13531873 1.87869537 42.27063744 3.75738964 63.40595617 18.78695034-19.72629748 20.90048221-46.14544587 21.60499283-71.74266594M128.15912873 394.26313666c-37.33906307 3.40513431-84.18901957 38.39582901-66.69367278 80.19679346 33.93392876 53.89506274 120.23648019 60.23565835 164.85548602 16.32116203 20.54822691-18.66953154 19.02178685-55.06924747-2.11353187-72.68201197-25.71463778-23.24885059-62.70144554-28.76751678-96.04828137-23.83594352z" fill="#FDED78" p-id="1742"></path><path d="M727.69766975 50.34453445c2.34836838-3.1702978 7.16252504-9.51089342 9.51089342-12.68119123 22.54433996 5.63608499 44.50158811 13.15086535 66.81109048 19.72629747-17.14309148-2.11353188-33.11199933 0.93934714-48.02414124 9.15863812-15.85148904 21.01789992-22.54433996 46.9673753-26.5365661 72.68201196-17.6127656-17.84760211-24.07078002-41.44870801-18.66953154-66.10657984 4.22706374-5.63608499 12.68119123-17.02567377 16.90825498-22.77917648z" fill="#93390E" p-id="1743"></path><path d="M729.45894631 139.23029077c3.99222724-25.71463778 10.68507816-51.66411206 26.5365661-72.68201196 65.98916215 33.46425464 118.12294833 86.41997025 166.02967076 141.60663542l2.11353187 8.5715452c-0.82192943 3.052879-2.34836838 9.15863811-3.052879 12.2115182-52.9557156-17.26051028-108.14238078-29.11977209-164.26839419-27.00624132l23.13143177-18.90436803c-16.90825497-2.34836838-33.93392876-4.46190025-50.95960143-6.69285094 0.1174188-12.32893592 0.1174188-24.65787184 0.46967412-37.10422657z" fill="#FFD074" p-id="1744"></path><path d="M103.61867458 222.59738201c70.56848121-11.15475118 142.78082017-31.35072277 214.1712297-13.03344654 43.32740338 12.32893592 87.82899149 36.04746062 109.90365735 76.90907572 17.84760211 32.1726522-10.09798524 73.73877901-44.50158702 76.67424031-36.04746062-5.7535038-67.16334579-28.18042496-103.44564402-33.11199932-32.40748871-3.63997193-65.28465152-3.63997193-97.57472143 0.35225531-47.20221181 7.74961686-86.18513264 38.0435737-131.39123138 51.89894857L32.93277568 355.98472646c-30.99846745-56.12601341 32.99458052-102.38887699 70.6858989-133.38734445m-31.35072276 41.68354454c-31.58555928 17.96502091-54.01248153 67.7504387-21.60499174 95.57860835 15.73407024 9.98056755 30.29395684-3.52255311 43.9144952-10.56765936 68.92462234-46.49770118 159.57165634-42.74031156 236.71556966-22.07466586-12.56377243-36.75197125 19.49146097-72.32975777 57.18277935-68.68978584-92.40831055-65.16723272-223.21244901-51.54669436-316.20785247 5.75350271zM595.24967243 286.35559351c32.99458052-55.42150279 99.6882533-80.78388526 161.56776942-84.4238572 56.12601341-2.11353188 111.31267859 9.74572993 164.26839419 27.00624132 0.70451063-3.052879 2.23095067-9.15863811 3.052879-12.2115182l5.04899317-1.99611308c17.96502091 47.084793 94.0521683 78.31809806 62.70144554 137.37957169-3.52255311 7.39736155-10.68507816 22.19208465-14.32505009 29.58944621-55.7737581-11.03733348-101.33211106-54.36473685-160.04132935-53.54280743-55.06924747-5.51866619-110.49074917 4.69673786-158.04521739 33.46425465-41.91838213 10.91991467-84.89353019-35.1081124-64.22788449-75.26521796m41.21387151-29.23719092c9.62831223 3.28771661 28.88493558 9.98056755 38.51324671 13.38570186-15.96890785 0.23483651-31.70297808 1.17418474-47.43704832 2.93546021 13.62053837 5.63608499 27.24107783 11.27216999 40.979035 16.67341846 3.87480843 8.57154629 11.6244253 25.59721898 15.49923373 34.16876527 4.46190025-12.56377243 5.8709215-25.36238247 4.22706374-38.39582902 6.10575911 12.79861003 7.39736155 26.6539849 3.87480844 41.56612682 55.89117581-17.26051028 116.24425296-18.90436805 173.1921947-6.69285092 34.05134646 6.10575911 60.00082184 30.99846745 91.70379992 42.50547395 22.19208465 1.99611307 34.75585709-24.65787184 30.29395684-43.67965869-6.81026973-54.12989925-66.92850928-71.62524714-109.78623965-89.70768576-79.2574452-19.96113398-172.25284757-24.65787184-241.06005111 27.24107782z" fill="#1F1F1F" p-id="1745"></path><path d="M636.46354394 257.11840259c68.80720464-51.89894967 161.802607-47.20221181 241.06005111-27.24107782 42.85772926 18.08243971 102.97596991 35.57778651 109.78623965 89.70768576 4.46190025 19.02178685-8.10187218 45.67577175-30.29395684 43.67965869-31.70297808-11.5070065-57.65245236-36.39971594-91.70379992-42.50547395-56.94794174-12.21151711-117.3010189-10.56765936-173.1921947 6.69285092 3.52255311-14.91214191 2.23095067-28.76751678-3.87480844-41.56612682-3.40513431-3.87480843-9.98056755-11.5070065-13.26828415-15.38181492-9.62831223-3.40513431-28.88493558-10.09798524-38.51324671-13.38570186zM72.26795182 264.28092654c92.99540237-57.30019705 223.79954192-70.92073652 316.20785247-5.7535027-37.69131839-3.63997193-69.74655177 31.93781458-57.18277935 68.68978584-77.14391333-20.6656446-167.79094732-24.42303533-236.71556966 22.07466586-13.62053837 7.04510625-28.18042496 20.54822691-43.9144952 10.56765936-32.40748871-27.82816964-9.98056755-77.61358744 21.60499174-95.57860836z" fill="#FFFFFF" p-id="1746"></path><path d="M627.53974233 273.43956466c15.73407024-1.76127657 31.46814157-2.70062369 47.43704832-2.93546021 3.28771661 3.87480843 9.86314873 11.5070065 13.26828415 15.38181492 1.64385775 13.03344654 0.23483651 25.83205658-4.22706374 38.39582902-3.87480843-8.57154629-11.6244253-25.59721898-15.49923373-34.16876527-13.73795717-5.40124848-27.35849553-11.03733348-40.979035-16.67341846z" fill="#050505" p-id="1747"></path><path d="M659.47755692 361.62081147c47.55446712-28.76751678 102.97596991-38.98292083 158.04521739-33.46425465 58.7092183-0.82192943 104.26757236 42.50547395 160.04132935 53.54280743 16.55599966 94.28700481 20.4308081 193.15332978-13.73795717 284.38745558-63.28853736 187.28240718-253.03673282 322.66586579-451.12163586 319.26073038C318.14215959 988.1655927 132.26877367 857.83112727 65.6925197 675.59771325c6.81026973-13.50312066 13.62053837-27.00624021 20.43080809-40.39194316 42.74031156 5.16641088 67.51560111 42.97514807 98.63148736 67.9852752 125.87256518 191.74430854 423.41088503 217.45894631 590.14506641 66.34141747 52.8382968-53.07313331 95.69602606-125.98998289 85.3632032-203.60357035-15.49923373 67.2807646-44.50158811 133.15250794-100.15792631 176.83216664-133.26992674 113.66104697-345.56246107 120.11906139-485.05556463 13.97279366l19.72629748 0.46967414c-29.00235439-34.63843939-58.7092183-68.68978584-86.30255144-104.38499116 170.0218969 7.16252504 333.93803578-100.39276392 402.51040282-254.79800829 23.01401408-6.69285093 45.91060937-13.38570186 68.80720464-20.4308081-5.04899317-3.99222724-15.26439723-11.9766806-20.3133904-15.96890783m185.63854943 32.5249075c-34.99069468 4.93157437-78.55293457 37.69131839-64.81497741 77.14391332 34.63843939 66.57625397 147.24272042 66.34141746 182.1159963-0.1174188 12.91602774-63.40595617-67.7504387-89.23801274-117.30101889-77.02649452z" fill="#FFD374" p-id="1748"></path><path d="M217.63197798 917.12743848C44.20494566 795.48193704-36.81377609 557.0050908 32.93277568 355.98472646l17.8476021 26.3017296c-22.30950346 96.8702108-19.84371628 199.61134311 14.91214192 293.31125719C132.26877367 857.83112727 318.14215959 988.1655927 512.70451063 985.34755021c198.08490416 3.40513431 387.83309851-131.9783232 451.12163586-319.26073038 34.16876526-91.23412581 30.29395684-190.10044968 13.73795717-284.38745558 3.63997193-7.39736155 10.80249587-22.19208465 14.32505009-29.58944621 48.02414124 140.9021248 27.47591433 303.99633426-54.01248154 428.57729591-69.51171527 109.08172792-182.58567042 189.16110255-308.57565331 218.63313103-140.66728829 31.23330396-295.18995145 4.46190025-411.66904092-82.1929065z" fill="#EEA650" p-id="1749"></path><path d="M128.15912873 394.26313666c33.34683583-4.93157437 70.33364359 0.58709182 96.04828137 23.83594352 21.13531873 17.6127656 22.66175877 54.01248153 2.11353187 72.68201197-44.61900582 43.9144952-130.92155726 37.57389958-164.85548602-16.32116203-17.49534679-41.80096332 29.3546097-76.79165802 66.69367278-80.19679346m-38.27841131 43.6796587c5.7535038 15.96890785 4.81415556 37.10422656 20.31339039 47.78930472 30.41137563 13.97279367 64.5801409 4.34448255 94.87409662-4.93157436-3.99222724-17.14309148 3.63997193-41.2138715-14.44246777-52.01636847-31.23330396-23.01401408-70.92073652-8.68896399-100.74501924 9.15863811z" fill="#F3A461" p-id="1750"></path><path d="M845.11610635 394.14571897c49.5505802-12.21151711 130.21704663 13.62053837 117.30101889 77.02649452-34.87327589 66.45883517-147.47755692 66.69367277-182.1159963 0.1174188-13.73795717-39.45259494 29.82428272-72.21233896 64.81497741-77.14391332m-12.56377243 34.40360178c-17.49534679 11.03733348-10.21540405 34.40360177-13.73795717 51.42927554 36.98680776 16.90825497 101.68436636 23.4836871 111.4300974-28.65009907-17.84760211-36.63455245-65.51948803-45.79319055-97.69214023-22.77917647z" fill="#F29A5B" p-id="1751"></path><path d="M89.88071742 437.94279536c29.82428272-17.84760211 69.51171527-32.1726522 100.74501924-9.15863811 18.08243971 10.80249587 10.45024056 34.87327589 14.44246777 52.01636847-30.29395684 9.27605692-64.46272209 18.90436805-94.87409662 4.93157436-15.49923373-10.68507816-14.5598866-31.82039688-20.31339039-47.78930472z" fill="#EC973B" p-id="1752"></path><path d="M832.55233392 428.54932075c32.1726522-23.01401408 79.84453702-13.85537597 97.69214023 22.77917647-9.74572993 52.13378617-74.44328964 45.55835405-111.4300974 28.65009907 3.52255311-17.02567377-3.75738962-40.39194207 13.73795717-51.42927554z" fill="#ED8739" p-id="1753"></path><path d="M155.04795014 559.7057156c18.08243971 76.2045662 53.42538862 151.70462067 120.00164368 197.02813711 139.49310355 106.14626772 351.78563789 99.6882533 485.05556463-13.97279366 55.6563393-43.67965869 84.65869368-109.55140204 100.15792631-176.83216664 10.33282286 77.61358744-32.52490751 150.53043703-85.3632032 203.60357035-166.73418138 151.11752885-464.27250121 125.40289107-590.14506641-66.34141747-21.60499284-44.61900582-35.22553119-93.46507649-29.70686501-143.48532969z" fill="#6B0000" p-id="1754"></path></svg>