<svg  viewBox="0 0 1024 1024" version="1.1" xmlns="http://www.w3.org/2000/svg"><path d="M313.066667 101.653333c121.493333-61.76 273.706667-63.573333 395.413333-1.706666-4.266667 4.906667-12.906667 14.72-17.173333 19.626666-113.6-48-245.866667-51.413333-357.76 3.306667-5.12-5.333333-15.36-15.893333-20.48-21.226667z" fill="#EFA654" /><path d="M201.92 128.746667c5.226667-54.4 80.106667-69.866667 111.146667-27.093334 5.12 5.333333 15.36 15.893333 20.48 21.226667-3.84 15.786667-6.293333 32.426667-14.933334 46.506667-18.56 3.306667-16.746667-21.226667-24.64-32-2.986667-7.466667-6.4-14.72-10.24-21.76-23.893333-29.76-56.64 2.773333-81.813333 13.12z" fill="#B25120" /><path d="M333.546667 122.88c111.893333-54.72 244.16-51.306667 357.76-3.306667 4.16 18.88 7.466667 37.973333 10.133333 57.066667 6.613333-17.28 12.48-34.88 19.946667-51.946667 56.213333 31.893333 100.16 79.146667 145.173333 124.373334-83.626667-24.96-186.24-31.36-255.253333 31.573333-29.226667 22.186667-36.373333 70.613333-1.813334 91.733333 18.986667 22.613333 44.8 1.066667 66.133334-5.546666-6.293333 37.653333-48.32 53.76-62.08 88.32-54.186667 100.693333-150.826667 179.093333-264.64 198.933333-32.96 6.293333-70.08-1.92-99.413334 17.706667 20.906667 21.226667 36.693333 46.4 53.76 70.613333-61.013333-38.613333-100.266667-105.92-104.64-177.92l-18.986666-1.706667c-6.186667 72.533333 39.146667 133.12 80.64 187.52-42.453333-23.68-82.24-82.453333-135.253334-48.96-42.133333-93.866667-61.546667-204.266667-24.64-303.04 10.24-11.093333 24.746667-16.96 37.76-24.106666 77.226667-33.28 172.16-32.96 245.013334 11.52 36.266667 29.653333 86.186667-33.066667 55.04-65.386667-55.893333-89.066667-174.613333-94.826667-268.693334-84.16 37.973333-37.12 74.773333-77.12 124.48-98.773333 7.893333 10.773333 6.08 35.306667 24.64 32 8.64-14.08 11.093333-30.72 14.933334-46.506667M162.24 405.12c-34.56 5.76-70.933333 35.84-67.306667 73.066667 22.4 30.293333 58.133333 53.546667 97.173334 48.853333 39.68 1.493333 94.933333-31.253333 74.88-77.226667-22.08-32.96-65.493333-53.866667-104.746667-44.693333z" fill="#FDE977" /><path d="M708.48 99.946667c32.106667-43.733333 106.133333-24.64 113.92 29.013333-26.666667-10.56-56.96-42.026667-84.8-16.533333-4.053333 3.093333-12.16 9.28-16.213333 12.266666-7.466667 17.066667-13.333333 34.666667-19.946667 51.946667-2.666667-19.093333-5.973333-38.186667-10.133333-57.066667 4.266667-4.906667 12.906667-14.72 17.173333-19.626666z" fill="#B25120" /><path d="M150.186667 240.746667c29.226667-54.72 82.24-92.586667 133.546666-125.12 3.84 7.04 7.253333 14.293333 10.24 21.76-49.706667 21.653333-86.506667 61.653333-124.48 98.773333-4.8 1.173333-14.4 3.413333-19.306666 4.586667zM721.386667 124.693333c4.053333-2.986667 12.16-9.173333 16.213333-12.266666 62.613333 37.973333 120.96 87.573333 157.973333 151.573333-5.866667-3.093333-17.813333-9.066667-23.68-12.16-1.386667-0.64-4.053333-2.026667-5.333333-2.773333-45.013333-45.226667-88.96-92.48-145.173333-124.373334z" fill="#EFA654" /><path d="M150.186667 240.746667c4.906667-1.173333 14.506667-3.413333 19.306666-4.586667 94.08-10.666667 212.8-4.906667 268.693334 84.16 31.146667 32.32-18.773333 95.04-55.04 65.386667-72.853333-44.48-167.786667-44.8-245.013334-11.52-22.826667 3.946667-45.76-0.32-58.986666-20.586667-21.226667-54.186667 36.586667-84.373333 71.04-112.853333m44.693333 7.36c-28.373333 5.973333-55.68 16.426667-80.106667 32.213333 30.08 11.626667 56.213333 32.64 42.666667 67.626667 54.186667-7.36 109.013333-6.186667 163.413333-4.266667 37.546667 1.066667 66.88 47.36 104.64 29.333333 22.826667-55.786667-37.546667-94.933333-82.56-109.973333-47.786667-12.373333-98.773333-26.133333-148.053333-14.933333zM611.306667 280.64c69.013333-62.933333 171.626667-56.533333 255.253333-31.573333 1.28 0.746667 3.946667 2.133333 5.333333 2.773333 5.866667 3.093333 17.813333 9.066667 23.68 12.16 0.64 0.32 1.813333 1.066667 2.453334 1.493333 39.146667 22.293333 80 70.08 48.106666 115.2l-8.213333 12.373334c-83.84-26.24-175.573333-70.186667-262.293333-26.24-21.333333 6.613333-47.146667 28.16-66.133334 5.546666-34.56-21.12-27.413333-69.546667 1.813334-91.733333m105.493333-33.493333c-32 5.333333-62.08 18.56-89.28 34.666666 36.266667 4.586667 56.64 24.96 51.093333 61.973334 81.28-12.8 168.32-13.546667 238.4 35.733333 45.973333-3.733333 33.173333-66.773333 3.2-84.053333-58.56-39.893333-133.546667-56.32-203.413333-48.32z" fill="#1F1F1F" /><path d="M194.88 248.106667c49.28-11.2 100.266667 2.56 148.053333 14.933333 45.013333 15.04 105.386667 54.186667 82.56 109.973333-37.76 18.026667-67.093333-28.266667-104.64-29.333333-54.4-1.92-109.226667-3.093333-163.413333 4.266667 13.546667-34.986667-12.586667-56-42.666667-67.626667 24.426667-15.786667 51.733333-26.24 80.106667-32.213333zM716.8 247.146667c69.866667-8 144.853333 8.426667 203.413333 48.32 29.973333 17.28 42.773333 80.32-3.2 84.053333-70.08-49.28-157.12-48.533333-238.4-35.733333 5.546667-37.013333-14.826667-57.386667-51.093333-61.973334 27.2-16.106667 57.28-29.333333 89.28-34.666666z" fill="#FFFFFF" /><path d="M866.56 249.066667z" fill="#FDE977" /><path d="M895.573333 264zM79.146667 353.6c13.226667 20.266667 36.16 24.533333 58.986666 20.586667-13.013333 7.146667-27.52 13.013333-37.76 24.106666-36.906667 98.773333-17.493333 209.173333 24.64 303.04 78.826667 180.266667 298.88 290.986667 489.706667 235.626667 167.466667-40.853333 302.826667-187.946667 330.24-358.186667 16-61.546667 1.28-124.373333-7.04-185.706666l8.213333-12.373334c76.053333 196.8-28.48 437.226667-213.013333 534.293334-115.946667 64.426667-260.693333 72.533333-384.32 26.026666C190.4 881.6 71.573333 728.106667 57.28 559.04c-9.173333-69.44 6.506667-138.24 21.866667-205.44z" fill="#EFA654" /><path d="M675.626667 366.826667c86.72-43.946667 178.453333 0 262.293333 26.24 8.32 61.333333 23.04 124.16 7.04 185.706666-27.413333 170.24-162.773333 317.333333-330.24 358.186667-190.826667 55.36-410.88-55.36-489.706667-235.626667 53.013333-33.493333 92.8 25.28 135.253334 48.96 117.653333 99.093333 293.44 121.066667 428.693333 44.906667 80.746667-42.666667 143.786667-128.533333 142.4-222.08-21.12 45.546667-35.093333 96.64-72.213333 132.48C642.453333 825.386667 437.333333 842.88 303.253333 742.4c-17.066667-24.213333-32.853333-49.386667-53.76-70.613333 29.333333-19.626667 66.453333-11.413333 99.413334-17.706667 113.813333-19.84 210.453333-98.24 264.64-198.933333 13.76-34.56 55.786667-50.666667 62.08-88.32m140.8 44.8c-31.36 5.44-67.2 29.226667-55.36 65.813333 25.493333 57.813333 127.04 58.133333 152.533333 0.106667 14.293333-54.826667-56.746667-71.68-97.173333-65.92z" fill="#FFD174" /><path d="M162.24 405.12c39.253333-9.173333 82.666667 11.733333 104.746667 44.693333 20.053333 45.973333-35.2 78.72-74.88 77.226667-39.04 4.693333-74.773333-18.56-97.173334-48.853333-3.626667-37.226667 32.746667-67.306667 67.306667-73.066667z" fill="#EFA654" /><path d="M816.426667 411.626667c40.426667-5.76 111.466667 11.093333 97.173333 65.92-25.493333 58.026667-127.04 57.706667-152.533333-0.106667-11.84-36.586667 24-60.373333 55.36-65.813333z" fill="#F29556" /><path d="M179.626667 562.773333l18.986666 1.706667c4.373333 72 43.626667 139.306667 104.64 177.92 134.08 100.48 339.2 82.986667 455.893334-36.8 37.12-35.84 51.093333-86.933333 72.213333-132.48 1.386667 93.546667-61.653333 179.413333-142.4 222.08-135.253333 76.16-311.04 54.186667-428.693333-44.906667-41.493333-54.4-86.826667-114.986667-80.64-187.52z" fill="#690302" /></svg>