<svg viewBox="0 0 1024 1024" version="1.1" xmlns="http://www.w3.org/2000/svg"><path d="M303.146667 106.56c127.253333-70.613333 293.12-71.04 420.053333 0.64-4.8 4.48-14.4 13.546667-19.2 18.026667-117.973333-67.306667-263.253333-54.826667-385.6-7.04-3.84-2.88-11.52-8.746667-15.253333-11.626667z" fill="#EEAC54" /><path d="M318.4 118.186667C440.746667 70.4 586.026667 57.92 704 125.226667c1.813333 23.893333 3.84 47.786667 5.76 71.68 12.8-25.386667 25.6-50.88 42.88-73.706667 49.813333 32.106667 96.64 70.4 129.706667 120.32-94.933333-8.853333-205.013333-36.8-284.16 34.56-40 22.72-38.4 96.533333 12.373333 102.72 49.706667-7.146667 94.72-38.293333 146.88-33.6 61.653333-7.04 113.6 29.226667 169.706667 46.4 45.12 103.146667 26.773333 227.306667-30.933334 321.813333-30.72 13.12-61.973333 25.173333-94.613333 32.426667l-5.973333-21.866667c29.866667-38.293333 53.76-81.92 58.773333-131.093333 23.253333-26.24 46.08-53.013333 65.706667-82.24-30.293333 15.146667-59.84 31.36-90.133334 46.186667 12.266667-27.413333 27.52-53.653333 48.746667-75.2 18.026667-12.053333 45.546667-19.093333 47.68-44.586667-15.466667-25.813333-43.946667-38.933333-70.186667-50.986667-5.226667-0.96-15.68-2.986667-20.906666-3.946666-23.893333 36.8-40.426667 77.546667-57.386667 117.76 5.973333-42.986667 13.12-85.973333 20.266667-128.853334-6.613333 1.066667-19.946667 3.093333-26.666667 4.053334-28.693333 61.866667-19.413333 157.653333-95.146667 184.64-13.333333-32.533333-24.533333-69.333333-58.133333-86.72 1.813333 56.533333 20.48 110.933333 48.746667 159.573333-23.893333 23.04-59.84 16.96-90.026667 18.026667 4.373333-61.013333 4.48-122.24-1.28-183.146667-12.8 0.213333-25.493333 0.746667-38.293333 1.386667-1.386667 43.946667-3.946667 87.786667-3.84 131.84-11.626667-12.266667-23.146667-24.533333-34.56-36.8-0.533333-31.04-0.64-62.186667 4.48-92.8 37.44-82.986667 13.76-188.053333-60.16-242.56-41.066667-29.546667-113.813333-29.653333-119.68-92.053334-1.386667-5.12-3.946667-15.253333-5.226667-20.266666z" fill="#FDEB78" /><path d="M185.066667 158.293333c-20.053333-65.066667 78.293333-94.933333 118.08-51.733333 3.733333 2.88 11.413333 8.746667 15.253333 11.626667 1.28 5.013333 3.84 15.146667 5.226667 20.266666-1.386667 16.533333-3.306667 33.173333-5.973334 49.6l-13.76 2.986667c-8-23.466667-16.746667-47.04-31.146666-67.52-35.733333-17.28-64.426667 11.84-87.68 34.773333zM723.2 107.2C767.253333 61.013333 852.16 95.786667 850.773333 160c-32.853333-14.186667-57.706667-57.28-98.133333-36.8-17.28 22.826667-30.08 48.32-42.88 73.706667-1.92-23.893333-3.946667-47.786667-5.76-71.68 4.8-4.48 14.4-13.546667 19.2-18.026667z" fill="#A43F10" /><path d="M272.746667 123.52c14.4 20.48 23.146667 44.053333 31.146666 67.52-32.64 5.333333-65.493333 11.626667-94.933333 27.306667-29.973333 14.08-61.12 25.706667-92.16 37.333333 48.32-48 98.773333-94.933333 155.946667-132.16z" fill="#FFCF74" /><path d="M323.626667 138.453333c5.866667 62.4 78.613333 62.506667 119.68 92.053334 73.92 54.506667 97.6 159.573333 60.16 242.56-8.533333-1.813333-25.6-5.653333-34.133334-7.573334 23.573333-43.413333 21.12-96-1.386666-139.306666-55.893333-84.906667-164.373333-105.706667-258.986667-107.84 29.44-15.68 62.293333-21.973333 94.933333-27.306667l13.76-2.986667c2.666667-16.426667 4.586667-33.066667 5.973334-49.6z" fill="#EEAC54" /><path d="M116.8 255.68c31.04-11.626667 62.186667-23.253333 92.16-37.333333 94.613333 2.133333 203.093333 22.933333 258.986667 107.84-6.826667 32.106667-23.253333 90.88-67.626667 63.893333-91.84-56.96-207.253333-43.626667-300.8 1.706667-18.88-23.36-33.813333-50.453333-27.52-81.706667 11.093333-20.586667 23.786667-42.773333 44.8-54.4m-8.64 25.28c36.16 2.453333 58.026667 27.306667 66.773333 60.906667 51.52 2.56 103.466667-9.386667 154.56 0.533333 39.146667 7.36 69.76 40.533333 111.253334 37.866667 5.76-29.546667 7.04-66.453333-21.013334-85.44-87.68-64.853333-219.52-75.306667-311.573333-13.866667zM598.186667 278.08c79.146667-71.36 189.226667-43.413333 284.16-34.56 45.12 38.293333 91.733333 82.666667 74.346666 148.48-9.813333 0.64-19.626667 1.28-29.546666 1.6-56.106667-17.173333-108.053333-53.44-169.706667-46.4-52.16-4.693333-97.173333 26.453333-146.88 33.6-50.773333-6.186667-52.373333-80-12.373333-102.72m18.88-1.6c29.12 11.946667 50.666667 34.133333 58.666666 64.96 54.293333-7.146667 110.506667-12.373333 163.84 3.413333 34.986667 9.706667 64.213333 37.973333 102.506667 35.306667 7.68-31.786667 5.12-71.466667-26.453333-89.493333-85.76-57.173333-209.28-70.826667-298.56-14.186667z" fill="#1F1F1F" /><path d="M108.16 280.96c92.053333-61.44 223.893333-50.986667 311.573333 13.866667 28.053333 18.986667 26.773333 55.893333 21.013334 85.44-41.493333 2.666667-72.106667-30.506667-111.253334-37.866667-51.093333-9.92-103.04 2.026667-154.56-0.533333-8.746667-33.6-30.613333-58.453333-66.773333-60.906667zM617.066667 276.48c89.28-56.64 212.8-42.986667 298.56 14.186667 31.573333 18.026667 34.133333 57.706667 26.453333 89.493333-38.293333 2.666667-67.52-25.6-102.506667-35.306667-53.333333-15.786667-109.546667-10.56-163.84-3.413333-8-30.826667-29.546667-53.013333-58.666666-64.96z" fill="#FFFFFF" /><path d="M83.413333 675.52C37.12 558.826667 56.96 430.826667 72 310.08c-6.293333 31.253333 8.64 58.346667 27.52 81.706667-7.786667 176.533333 252.16 245.653333 348.16 107.52 1.173333 8.426667 3.413333 25.066667 4.48 33.386666-58.773333 83.093333-188.48 64.853333-273.386667 34.24-3.52-2.026667-10.56-5.973333-14.08-8-34.346667-16.853333-58.56-46.933333-80.96-76.8-20.16 199.786667 124.906667 398.613333 318.933334 446.4 189.44 60.373333 396.693333-47.466667 493.546666-213.12 57.706667-94.506667 76.053333-218.666667 30.933334-321.813333 9.92-0.32 19.733333-0.96 29.546666-1.6 24.853333 109.013333 18.666667 228.373333-34.346666 328.426667C847.253333 872 682.133333 975.786667 512 970.453333c-186.56 5.44-364.48-121.066667-428.586667-294.933333z" fill="#EEAC54" /><path d="M467.946667 326.186667c22.506667 43.306667 24.96 95.893333 1.386666 139.306666-6.826667 11.52-13.973333 22.826667-21.653333 33.813334-96 138.133333-355.946667 69.013333-348.16-107.52 93.546667-45.333333 208.96-58.666667 300.8-1.706667 44.373333 26.986667 60.8-31.786667 67.626667-63.893333z" fill="#743399" /><path d="M771.52 377.066667c6.72-0.96 20.053333-2.986667 26.666667-4.053334-7.146667 42.88-14.293333 85.866667-20.266667 128.853334 16.96-40.213333 33.493333-80.96 57.386667-117.76 5.226667 0.96 15.68 2.986667 20.906666 3.946666-11.2 42.986667-27.2 84.48-43.84 125.653334 23.573333-34.56 46.72-69.44 74.133334-101.12-1.386667 23.786667-3.733333 47.573333-7.786667 71.04-21.226667 21.546667-36.48 47.786667-48.746667 75.2 30.293333-14.826667 59.84-31.04 90.133334-46.186667-19.626667 29.226667-42.453333 56-65.706667 82.24-7.146667 8.106667-14.186667 16.213333-21.013333 24.533333-23.253333 23.573333-44.053333 54.72-77.546667 63.893334-36.053333 1.706667-64.533333-25.493333-88.853333-48.746667-28.266667-48.64-46.933333-103.04-48.746667-159.573333 33.6 17.386667 44.8 54.186667 58.133333 86.72 75.733333-26.986667 66.453333-122.773333 95.146667-184.64z" fill="#DB4100" /><path d="M856.213333 388.053333c26.24 12.053333 54.72 25.173333 70.186667 50.986667-2.133333 25.493333-29.653333 32.533333-47.68 44.586667 4.053333-23.466667 6.4-47.253333 7.786667-71.04-27.413333 31.68-50.56 66.56-74.133334 101.12 16.64-41.173333 32.64-82.666667 43.84-125.653334z" fill="#EEAC54" /><path d="M447.68 499.306667c7.68-10.986667 14.826667-22.293333 21.653333-33.813334 8.533333 1.92 25.6 5.76 34.133334 7.573334-5.12 30.613333-5.013333 61.76-4.48 92.8-3.52 68.16 20.053333 142.933333-14.293334 205.973333l-28.16-16.213333c-4.586667-74.24 1.813333-148.8-4.373333-222.933334-1.066667-8.32-3.306667-24.96-4.48-33.386666zM537.386667 470.826667c12.8-0.64 25.493333-1.173333 38.293333-1.386667 5.76 60.906667 5.653333 122.133333 1.28 183.146667-13.653333-0.533333-27.306667-1.173333-41.066667-1.92-0.746667-16-1.92-32-2.346666-48-0.106667-44.053333 2.453333-87.893333 3.84-131.84z" fill="#DB4100" /><path d="M402.666667 928.533333C208.64 880.746667 63.573333 681.92 83.733333 482.133333c22.4 29.866667 46.613333 59.946667 80.96 76.8 3.733333 101.333333 70.933333 192.96 161.92 234.666667 149.973333 75.626667 348.16 51.413333 469.013334-67.626667l5.973333 21.866667c32.64-7.253333 63.893333-19.306667 94.613333-32.426667-96.853333 165.653333-304.106667 273.493333-493.546666 213.12z" fill="#FFCF74" /><path d="M452.16 532.693333c6.186667 74.133333-0.213333 148.693333 4.373333 222.933334l28.16 16.213333c34.346667-63.04 10.773333-137.813333 14.293334-205.973333 11.413333 12.266667 22.933333 24.533333 34.56 36.8 0.426667 16 1.6 32 2.346666 48 13.76 0.746667 27.413333 1.386667 41.066667 1.92 30.186667-1.066667 66.133333 5.013333 90.026667-18.026667 24.32 23.253333 52.8 50.453333 88.853333 48.746667 33.493333-9.173333 54.293333-40.32 77.546667-63.893334-122.133333 260.053333-587.946667 236.693333-654.613334-52.48 84.906667 30.613333 214.613333 48.853333 273.386667-34.24z" fill="#FFCF74" /><path d="M164.693333 558.933333c3.52 2.026667 10.56 5.973333 14.08 8 66.666667 289.173333 532.48 312.533333 654.613334 52.48 6.826667-8.32 13.866667-16.426667 21.013333-24.533333-5.013333 49.173333-28.906667 92.8-58.773333 131.093333-120.853333 119.04-319.04 143.253333-469.013334 67.626667-90.986667-41.706667-158.186667-133.333333-161.92-234.666667z" fill="#7A130C" /></svg>