<?xml version="1.0" standalone="no"?><!DOCTYPE svg PUBLIC "-//W3C//DTD SVG 1.1//EN" "http://www.w3.org/Graphics/SVG/1.1/DTD/svg11.dtd"><svg class="icon" width="64px" height="64.00px" viewBox="0 0 1024 1024" version="1.1" xmlns="http://www.w3.org/2000/svg"><path d="M9.43597037 346.94637037h1005.37078518v326.7090963H9.43597037z" fill="#F95F5D" /><path d="M1014.80675555 346.94637037V86.62281482c0-32.28254815-28.88438518-61.04557037-63.2301037-61.04557037H72.54471111c-34.34571852 0-63.2301037 28.76302222-63.2301037 61.04557037V346.94637037h1005.49214814z m0 0" fill="#55C7F7" /><path d="M9.43597037 673.65546667v260.32355555c0 32.28254815 28.64165925 61.04557037 62.74465185 61.04557037h879.88148148c34.10299259 0 62.74465185-28.76302222 62.74465185-61.04557037V673.65546667H9.43597037z m0 0" fill="#7ECF3B" /><path d="M402.53060741 25.57724445h224.40011851V995.02459259H402.53060741z" fill="#FDAF42" /><path d="M626.93072592 445.73582222v136.41197037H391.85066667V445.73582222h235.08005925m37.74388149-55.7056H354.10678518c-5.33997037 0-14.32082963 5.33997037-14.32082963 14.32082963v217.2397037c0 5.33997037 5.33997037 14.32082963 14.32082963 14.32082963h310.56782223c5.33997037 0 14.32082963-5.33997037 14.32082962-14.32082963v-217.2397037c-3.51952592-10.67994075-8.98085925-14.32082963-14.32082962-14.32082963z m0 0" fill="#FFFFFF" /></svg>