<?xml version="1.0" standalone="no"?><!DOCTYPE svg PUBLIC "-//W3C//DTD SVG 1.1//EN" "http://www.w3.org/Graphics/SVG/1.1/DTD/svg11.dtd"><svg t="1640888009308" class="icon" viewBox="0 0 1024 1024" version="1.1" xmlns="http://www.w3.org/2000/svg" p-id="2559" xmlns:xlink="http://www.w3.org/1999/xlink" width="64" height="64"><defs><style type="text/css"></style></defs><path d="M948.29336501 126.19656305H746.83687468V42.32625067a33.54812495 33.54812495 0 0 0-33.54812497-33.54812496H310.71125029a33.54812495 33.54812495 0 0 0-33.54812497 33.54812496v83.87031238H75.70663499a33.54812495 33.54812495 0 0 0 0 67.09624989H111.09990681l81.68968427 732.4562121A100.64437486 100.64437486 0 0 0 292.79655157 1015.22187429h438.37334875a100.67792299 100.67792299 0 0 0 100.0405086-89.47284925L912.90009319 193.29281294h35.35972369a33.54812495 33.54812495 0 0 0 0.03354813-67.09624989zM344.25937524 75.87437562h335.48124952v50.32218743H344.25937524V75.87437562z m420.2909094 842.42696568a33.54812495 33.54812495 0 0 1-33.34683621 29.82428308H292.79655157a33.54812495 33.54812495 0 0 1-33.34683621-29.82428308L178.59873422 193.29281294h666.80253156l-80.85098114 725.00852836z" p-id="2560" fill="#ffffff"></path><path d="M612.64437486 835.87359829a33.54812495 33.54812495 0 0 0 33.54812495-33.54812495V309.77190279a33.54812495 33.54812495 0 0 0-67.09624991 0v492.55357055a33.54812495 33.54812495 0 0 0 33.54812496 33.54812495zM428.12968762 835.87359829a33.54812495 33.54812495 0 0 0 33.54812495-33.54812495V309.77190279a33.54812495 33.54812495 0 0 0-67.0962499 0v492.55357055a33.54812495 33.54812495 0 0 0 33.54812495 33.54812495z" p-id="2561" fill="#ffffff"></path></svg>