<svg t="1649589364183" class="icon" viewBox="0 0 1024 1024" version="1.1" xmlns="http://www.w3.org/2000/svg" p-id="3840" xmlns:xlink="http://www.w3.org/1999/xlink" ><defs><style type="text/css"></style></defs><path d="M311.146667 100.373333c123.52-59.413333 272.533333-61.546667 396.8-2.986666-3.84 5.226667-11.52 15.573333-15.36 20.693333-114.773333-52.48-250.24-50.56-364.8 1.173333-4.16-4.8-12.48-14.186667-16.64-18.88z" fill="#EEA44F" p-id="3841"></path><path d="M196.48 136c-0.213333-57.6 82.986667-83.733333 114.666667-35.626667 4.16 4.693333 12.48 14.08 16.64 18.88-0.64 23.253333-2.56 47.253333-19.626667 65.173334-1.706667-19.2-2.88-38.4-3.413333-57.6L298.666667 124.8c-14.72-8.426667-28.16-24.96-46.933334-20.906667-19.733333 8.32-35.626667 23.573333-55.253333 32.106667z" fill="#8F0D00" p-id="3842"></path><path d="M716.586667 85.866667c23.466667-11.413333 52.8-20.16 76.16-3.413334 17.28 12.266667 40.533333 33.493333 24.533333 55.68-14.293333-10.346667-26.346667-23.36-40-34.346666-20.266667-5.973333-40.213333-12.8-60.693333-17.92z" fill="#A03E0E" opacity=".89" p-id="3843"></path><path d="M327.786667 119.253333c114.56-51.733333 250.026667-53.653333 364.8-1.173333-4.906667 22.4 0.96 43.84 16.96 60.053333-0.32 11.306667-0.32 22.506667-0.426667 33.706667 15.466667 2.026667 30.933333 3.946667 46.293333 6.08l-21.013333 17.173333c-56.213333 3.306667-116.8 26.346667-146.773333 76.693334-18.773333 36.48 20.266667 78.293333 58.346666 68.373333 4.586667 3.626667 13.866667 10.88 18.453334 14.506667-20.8 6.4-41.6 12.48-62.506667 18.56-62.293333 140.266667-211.2 237.973333-365.653333 231.466666 25.066667 32.426667 52.053333 63.36 78.4 94.826667l-17.92-0.426667C236.266667 697.92 204.16 629.333333 187.733333 560.106667c-5.013333 45.44 7.36 89.813333 26.986667 130.346666-28.266667-22.72-50.773333-57.066667-89.6-61.76-6.186667 12.16-12.373333 24.426667-18.56 36.693334C74.986667 580.266667 72.746667 486.933333 93.013333 398.933333c41.066667-12.586667 76.48-40.106667 119.36-47.146666 29.333333-3.626667 59.2-3.626667 88.64-0.32 32.96 4.48 61.226667 24.853333 93.973334 30.08 31.253333-2.666667 56.64-40.426667 40.426666-69.653334-20.053333-37.12-60.48-58.666667-99.84-69.866666-64.853333-16.64-130.453333 1.706667-194.56 11.84-2.026667-0.533333-5.973333-1.706667-7.893333-2.346667 40.853333-46.613333 82.773333-93.12 135.253333-127.146667l30.293334 0.426667 6.08 2.026667c0.533333 19.2 1.706667 38.4 3.413333 57.6 17.066667-17.92 18.986667-41.92 19.626667-65.173334M163.306667 409.813333c-33.92 3.093333-76.48 34.88-60.586667 72.853334 30.826667 48.96 109.226667 54.72 149.76 14.826666 18.666667-16.96 17.28-50.026667-1.92-66.026666-23.36-21.12-56.96-26.133333-87.253333-21.653334z" fill="#FDED78" p-id="3844"></path><path d="M707.946667 97.386667c2.133333-2.88 6.506667-8.64 8.64-11.52 20.48 5.12 40.426667 11.946667 60.693333 17.92-15.573333-1.92-30.08 0.853333-43.626667 8.32-14.4 19.093333-20.48 42.666667-24.106666 66.026666-16-16.213333-21.866667-37.653333-16.96-60.053333 3.84-5.12 11.52-15.466667 15.36-20.693333z" fill="#93390E" opacity=".93" p-id="3845"></path><path d="M709.546667 178.133333c3.626667-23.36 9.706667-46.933333 24.106666-66.026666 59.946667 30.4 107.306667 78.506667 150.826667 128.64l1.92 7.786666c-0.746667 2.773333-2.133333 8.32-2.773333 11.093334-48.106667-15.68-98.24-26.453333-149.226667-24.533334l21.013333-17.173333c-15.36-2.133333-30.826667-4.053333-46.293333-6.08 0.106667-11.2 0.106667-22.4 0.426667-33.706667z" fill="#FFD074" p-id="3846"></path><path d="M141.013333 253.866667c64.106667-10.133333 129.706667-28.48 194.56-11.84 39.36 11.2 79.786667 32.746667 99.84 69.866666 16.213333 29.226667-9.173333 66.986667-40.426666 69.653334-32.746667-5.226667-61.013333-25.6-93.973334-30.08-29.44-3.306667-59.306667-3.306667-88.64 0.32-42.88 7.04-78.293333 34.56-119.36 47.146666L76.8 375.04c-28.16-50.986667 29.973333-93.013333 64.213333-121.173333m-28.48 37.866666c-28.693333 16.32-49.066667 61.546667-19.626666 86.826667 14.293333 9.066667 27.52-3.2 39.893333-9.6 62.613333-42.24 144.96-38.826667 215.04-20.053333-11.413333-33.386667 17.706667-65.706667 51.946667-62.4-83.946667-59.2-202.773333-46.826667-287.253334 5.226666zM587.626667 311.786667c29.973333-50.346667 90.56-73.386667 146.773333-76.693334 50.986667-1.92 101.12 8.853333 149.226667 24.533334 0.64-2.773333 2.026667-8.32 2.773333-11.093334l4.586667-1.813333c16.32 42.773333 85.44 71.146667 56.96 124.8-3.2 6.72-9.706667 20.16-13.013334 26.88-50.666667-10.026667-92.053333-49.386667-145.386666-48.64-50.026667-5.013333-100.373333 4.266667-143.573334 30.4-38.08 9.92-77.12-31.893333-58.346666-68.373333m37.44-26.56c8.746667 2.986667 26.24 9.066667 34.986666 12.16-14.506667 0.213333-28.8 1.066667-43.093333 2.666666 12.373333 5.12 24.746667 10.24 37.226667 15.146667 3.52 7.786667 10.56 23.253333 14.08 31.04 4.053333-11.413333 5.333333-23.04 3.84-34.88 5.546667 11.626667 6.72 24.213333 3.52 37.76 50.773333-15.68 105.6-17.173333 157.333333-6.08 30.933333 5.546667 54.506667 28.16 83.306667 38.613333 20.16 1.813333 31.573333-22.4 27.52-39.68-6.186667-49.173333-60.8-65.066667-99.733334-81.493333-72-18.133333-156.48-22.4-218.986666 24.746667z" fill="#1F1F1F" p-id="3847"></path><path d="M625.066667 285.226667c62.506667-47.146667 146.986667-42.88 218.986666-24.746667 38.933333 16.426667 93.546667 32.32 99.733334 81.493333 4.053333 17.28-7.36 41.493333-27.52 39.68-28.8-10.453333-52.373333-33.066667-83.306667-38.613333-51.733333-11.093333-106.56-9.6-157.333333 6.08 3.2-13.546667 2.026667-26.133333-3.52-37.76-3.093333-3.52-9.066667-10.453333-12.053334-13.973333-8.746667-3.093333-26.24-9.173333-34.986666-12.16zM112.533333 291.733333c84.48-52.053333 203.306667-64.426667 287.253334-5.226666-34.24-3.306667-63.36 29.013333-51.946667 62.4-70.08-18.773333-152.426667-22.186667-215.04 20.053333-12.373333 6.4-25.6 18.666667-39.893333 9.6-29.44-25.28-9.066667-70.506667 19.626666-86.826667z" fill="#FFFFFF" p-id="3848"></path><path d="M616.96 300.053333c14.293333-1.6 28.586667-2.453333 43.093333-2.666666 2.986667 3.52 8.96 10.453333 12.053334 13.973333 1.493333 11.84 0.213333 23.466667-3.84 34.88-3.52-7.786667-10.56-23.253333-14.08-31.04-12.48-4.906667-24.853333-10.026667-37.226667-15.146667z" fill="#050505" p-id="3849"></path><path d="M645.973333 380.16c43.2-26.133333 93.546667-35.413333 143.573334-30.4 53.333333-0.746667 94.72 38.613333 145.386666 48.64 15.04 85.653333 18.56 175.466667-12.48 258.346667-57.493333 170.133333-229.866667 293.12-409.813333 290.026666C335.893333 949.333333 167.04 830.933333 106.56 665.386667c6.186667-12.266667 12.373333-24.533333 18.56-36.693334 38.826667 4.693333 61.333333 39.04 89.6 61.76 114.346667 174.186667 384.64 197.546667 536.106667 60.266667 48-48.213333 86.933333-114.453333 77.546666-184.96-14.08 61.12-40.426667 120.96-90.986666 160.64-121.066667 103.253333-313.92 109.12-440.64 12.693333l17.92 0.426667c-26.346667-31.466667-53.333333-62.4-78.4-94.826667 154.453333 6.506667 303.36-91.2 365.653333-231.466666 20.906667-6.08 41.706667-12.16 62.506667-18.56-4.586667-3.626667-13.866667-10.88-18.453334-14.506667m168.64 29.546667c-31.786667 4.48-71.36 34.24-58.88 70.08 31.466667 60.48 133.76 60.266667 165.44-0.106667 11.733333-57.6-61.546667-81.066667-106.56-69.973333z" fill="#FFD374" p-id="3850"></path><path d="M244.586667 884.8C87.04 774.293333 13.44 557.653333 76.8 375.04l16.213333 23.893333c-20.266667 88-18.026667 181.333333 13.546667 266.453334C167.04 830.933333 335.893333 949.333333 512.64 946.773333c179.946667 3.093333 352.32-119.893333 409.813333-290.026666 31.04-82.88 27.52-172.693333 12.48-258.346667 3.306667-6.72 9.813333-20.16 13.013334-26.88 43.626667 128 24.96 276.16-49.066667 389.333333-63.146667 99.093333-165.866667 171.84-280.32 198.613334-127.786667 28.373333-268.16 4.053333-373.973333-74.666667z" fill="#EEA650" p-id="3851"></path><path d="M163.306667 409.813333c30.293333-4.48 63.893333 0.533333 87.253333 21.653334 19.2 16 20.586667 49.066667 1.92 66.026666-40.533333 39.893333-118.933333 34.133333-149.76-14.826666-15.893333-37.973333 26.666667-69.76 60.586667-72.853334m-34.773334 39.68c5.226667 14.506667 4.373333 33.706667 18.453334 43.413334 27.626667 12.693333 58.666667 3.946667 86.186666-4.48-3.626667-15.573333 3.306667-37.44-13.12-47.253334-28.373333-20.906667-64.426667-7.893333-91.52 8.32z" fill="#F3A461" p-id="3852"></path><path d="M814.613333 409.706667c45.013333-11.093333 118.293333 12.373333 106.56 69.973333-31.68 60.373333-133.973333 60.586667-165.44 0.106667-12.48-35.84 27.093333-65.6 58.88-70.08m-11.413333 31.253333c-15.893333 10.026667-9.28 31.253333-12.48 46.72 33.6 15.36 92.373333 21.333333 101.226667-26.026667-16.213333-33.28-59.52-41.6-88.746667-20.693333z" fill="#F29A5B" p-id="3853"></path><path d="M128.533333 449.493333c27.093333-16.213333 63.146667-29.226667 91.52-8.32 16.426667 9.813333 9.493333 31.68 13.12 47.253334-27.52 8.426667-58.56 17.173333-86.186666 4.48-14.08-9.706667-13.226667-28.906667-18.453334-43.413334z" fill="#EC973B" p-id="3854"></path><path d="M803.2 440.96c29.226667-20.906667 72.533333-12.586667 88.746667 20.693333-8.853333 47.36-67.626667 41.386667-101.226667 26.026667 3.2-15.466667-3.413333-36.693333 12.48-46.72z" fill="#ED8739" p-id="3855"></path><path d="M187.733333 560.106667c16.426667 69.226667 48.533333 137.813333 109.013334 178.986666 126.72 96.426667 319.573333 90.56 440.64-12.693333 50.56-39.68 76.906667-99.52 90.986666-160.64 9.386667 70.506667-29.546667 136.746667-77.546666 184.96-151.466667 137.28-421.76 113.92-536.106667-60.266667-19.626667-40.533333-32-84.906667-26.986667-130.346666z" fill="#6B0000" p-id="3856"></path></svg>