<?xml version="1.0" standalone="no"?><!DOCTYPE svg PUBLIC "-//W3C//DTD SVG 1.1//EN" "http://www.w3.org/Graphics/SVG/1.1/DTD/svg11.dtd"><svg class="icon" width="64px" height="64.00px" viewBox="0 0 1024 1024" version="1.1" xmlns="http://www.w3.org/2000/svg"><path d="M847.13168592 1011.81572742h-667.49629629c-93.83784297 0-169.90814815-76.07030518-169.90814815-169.90814816v-667.49629629c0-93.83784297 76.07030518-169.90814815 169.90814815-169.90814815h667.49629629c93.83784297 0 169.90814815 76.07030518 169.90814816 169.90814815v667.49629629c0 93.83784297-76.07030518 169.90814815-169.90814816 169.90814816z" fill="#FF7878" /><path d="M718.55976297 281.90245926a33.7389037 33.7389037 0 0 0-12.18484149-25.95953777 33.74739911 33.74739911 0 0 0-27.75570963-7.19682371l-317.46123852 59.51639704c-15.95922963 2.98552889-27.5129837 16.91799703-27.5129837 33.15636148l0.21845334 303.55304296a78.48300089 78.48300089 0 0 0-27.17316742-4.83024592c-43.39939555 0-78.57038222 35.18312297-78.57038222 78.57038222 0 43.39939555 35.18312297 78.57038222 78.57038222 78.57038222s78.57038222-35.18312297 78.57038223-78.57038222V432.35612445l281.91402667-52.85357037v205.95294814a78.48300089 78.48300089 0 0 0-27.17316742-4.83024592c-43.39939555 0-78.57038222 35.18312297-78.57038221 78.57038222s35.18312297 78.57038222 78.57038221 78.57038223 78.57038222-35.18312297 78.57038222-78.57038223c-0.0121363-1.44421925-0.0121363-377.29317925-0.01213628-377.29317926z" fill="#EF5252" /><path d="M718.55976297 267.3389037a33.7389037 33.7389037 0 0 0-12.18484149-25.95953778 33.74739911 33.74739911 0 0 0-27.75570963-7.1968237l-317.46123852 59.51639704c-15.95922963 2.98552889-27.5129837 16.91799703-27.5129837 33.15636149l0.21845334 303.55304295a78.48300089 78.48300089 0 0 0-27.17316742-4.83024592c-43.39939555 0-78.57038222 35.18312297-78.57038222 78.57038222 0 43.39939555 35.18312297 78.57038222 78.57038222 78.57038222s78.57038222-35.18312297 78.57038223-78.57038222V417.79256889l281.91402667-52.85357037v205.95294815a78.48300089 78.48300089 0 0 0-27.17316742-4.83024592c-43.39939555 0-78.57038222 35.18312297-78.57038221 78.57038222s35.18312297 78.57038222 78.57038221 78.57038222 78.57038222-35.18312297 78.57038222-78.57038222c-0.0121363-1.44421925-0.0121363-377.29317925-0.01213628-377.29317927z" fill="#FFFFFF" /></svg>