<?xml version="1.0" standalone="no"?><!DOCTYPE svg PUBLIC "-//W3C//DTD SVG 1.1//EN" "http://www.w3.org/Graphics/SVG/1.1/DTD/svg11.dtd"><svg class="icon" width="64px" height="64.00px" viewBox="0 0 1024 1024" version="1.1" xmlns="http://www.w3.org/2000/svg"><path d="M678.88924445-3.11466666H235.9296c-88.81493333 0-160.80213333 71.99857778-160.80213333 160.80213333v697.40088889c0 88.81493333 71.99857778 160.80213333 160.80213333 160.80213333h552.37973333c88.81493333 0 160.80213333-71.99857778 160.80213334-160.80213333V267.09617778c0-36.21546667-14.38151111-70.94044445-39.99288889-96.54044444l-133.68888889-133.68888889a136.54243555 136.54243555 0 0 0-96.54044444-39.98151111z" fill="#FF7878" /><path d="M909.11857778 170.55573334l-133.68888889-133.68888889a136.53447111 136.53447111 0 0 0-70.25777778-37.43288889v150.05013333c0 47.63875555 38.61617778 86.25493333 86.25493334 86.25493333h154.02097777a136.59932445 136.59932445 0 0 0-36.32924444-65.18328888zM668.14862222 555.12462222c-25.92995555 0-51.63235555 3.76604445-77.55093333 8.64711112-30.57208889-28.17137778-56.50204445-61.44-76.21973334-98.48604445 21.04888889-68.98346667 22.15253333-115.78026667 6.2008889-137.96693333-7.31591111-9.76213333-19.50151111-15.9744-31.9032889-15.9744-15.95164445-1.10364445-30.79964445 6.21226667-38.11555555 19.74044444-22.15253333 37.04604445 9.96693333 109.79555555 24.81493333 139.29813334-17.06666667 53.00906667-38.11555555 103.58328889-65.13777778 152.82631111-116.98631111 50.57422222-119.43253333 81.39662222-119.43253333 92.48995555 0 13.52817778 7.31591111 27.05635555 20.83271111 33.26862222 4.86968889 3.54986667 12.1856 4.88106667 18.38648889 4.88106667 30.79964445 0 66.46897778-34.59982222 104.58453333-102.46826667 48.08248889-19.74044445 95.93742222-35.71484445 146.46613334-46.7968 25.92995555 22.17528889 57.83324445 34.59982222 91.06773333 37.04604445 21.04888889 0 61.59928889 0 61.15555556-42.14328889 1.3312-15.9744-7.31591111-43.03075555-65.14915556-44.36195556zM331.69635555 716.52977778l-3.70915555 1.3312c10.92266667-15.99715555 25.32693333-28.44444445 43.66791111-35.99928889-9.60284445 16.22471111-22.92622222 28.44444445-39.95875556 34.66808889z m150.85795556-366.77404444c1.16053333-1.31982222 3.60675555-2.67377778 5.00622222-2.67377778l4.06186667 1.35395556c6.28053333 20.94648889 6.28053333 43.008-1.39946667 63.7383111-9.05671111-19.63804445-12.77724445-41.68817778-7.66862222-62.41848888zM546.42915555 588.58666667c-26.86293333 6.25777778-56.37688889 14.98453333-83.23982222 24.81493333l-2.78755555 1.09226667 0.36408889-2.20728889c13.43715555-27.27253333 25.75928889-55.89902222 36.77297778-84.51413333l1.31982222-2.78755556 1.3312 1.67253333c13.65333333 21.01475555 30.94755555 42.67804445 49.44782222 61.2352l-3.20853334 0.69404445z m126.48675556 15.45102222c-12.36764445-1.08088889-24.50773333-3.45884445-36.864-9.50044444 11.03644445-2.37795555 20.75306667-2.37795555 31.78951111-2.37795556 24.50773333 0 29.36604445 6.05297778 29.58222223 9.50044445-7.29315555 2.37795555-15.90613333 3.67502222-24.50773334 2.37795555z" fill="#F25555" /><path d="M667.83004445 578.50595556c-11.03644445 0-20.75306667 0-31.78951112 2.37795556 12.36764445 6.05297778 24.50773333 8.41955555 36.864 9.50044444 8.61297778 1.29706667 17.22595555 0 24.50773334-2.37795556-0.21617778-3.44746667-5.07448889-9.50044445-29.58222222-9.50044444z m-167.64017778-65.50186667l-1.3312-1.67253333-1.31982222 2.78755556c-11.01368889 28.61511111-23.3472 57.2416-36.77297778 84.51413333l-0.36408889 2.20728889 2.78755555-1.09226667c26.86293333-9.84177778 56.37688889-18.55715555 83.23982222-24.81493333l3.19715556-0.69404445c-18.48888889-18.56853333-35.78311111-40.22044445-49.43644444-61.2352z m-8.55608889-178.23288889l-4.06186667-1.35395555c-1.39946667 0-3.84568889 1.35395555-5.00622222 2.67377777-5.12 20.73031111-1.39946667 42.78044445 7.68 62.40711112 7.66862222-20.71893333 7.66862222-42.76906667 1.38808889-63.72693334z m-163.64657778 369.43644445l3.70915555-1.3312c17.03253333-6.22364445 30.35591111-18.44337778 39.95875556-34.66808889-18.34097778 7.55484445-32.74524445 20.00213333-43.66791111 35.99928889z m344.15502222-76.23111111c-33.23448889-2.43484445-65.13777778-14.85937778-91.06773333-37.04604445-50.51733333 11.09333333-98.38364445 27.05635555-146.46613334 46.7968-38.11555555 67.86844445-73.78488889 102.46826667-104.58453333 102.46826667-6.20088889 0-13.5168-1.3312-18.38648889-4.88106667-13.5168-6.21226667-20.83271111-19.74044445-20.83271111-33.26862222 0-11.09333333 2.43484445-41.91573333 119.43253333-92.48995555 27.0336-49.24302222 48.08248889-99.81724445 65.13777778-152.82631112-14.848-29.50257778-46.97884445-102.25208889-24.81493333-139.29813333 7.31591111-13.52817778 22.15253333-20.84408889 38.11555555-19.74044445 12.41315555 0 24.59875555 6.21226667 31.9032889 15.9744 15.95164445 22.17528889 14.848 68.98346667-6.2008889 137.96693334 19.71768889 37.04604445 45.64764445 70.31466667 76.21973334 98.48604444 25.92995555-4.88106667 51.63235555-8.64711111 77.55093333-8.64711111 57.83324445 1.3312 66.46897778 28.38755555 65.13777778 44.36195556 0.45511111 42.14328889-40.09528889 42.14328889-61.14417778 42.14328889z" fill="#FFFFFF" /></svg>