<?xml version="1.0" standalone="no"?><!DOCTYPE svg PUBLIC "-//W3C//DTD SVG 1.1//EN" "http://www.w3.org/Graphics/SVG/1.1/DTD/svg11.dtd"><svg class="icon" width="64px" height="64.00px" viewBox="0 0 1024 1024" version="1.1" xmlns="http://www.w3.org/2000/svg"><path d="M678.77546667-3.12604444H235.81582222c-88.81493333 0-160.80213333 71.99857778-160.80213333 160.80213333v697.40088889c0 88.81493333 71.99857778 160.80213333 160.80213333 160.80213334h552.37973333c88.81493333 0 160.80213333-71.99857778 160.80213334-160.80213334V267.09617778c0-36.21546667-14.38151111-70.94044445-39.99288889-96.54044444l-133.68888889-133.68888889a136.55267555 136.55267555 0 0 0-96.54044444-39.99288889z" fill="#F98950" /><path d="M909.0048 170.55573334l-133.68888889-133.68888889a136.53447111 136.53447111 0 0 0-70.25777778-37.43288889v150.05013333c0 47.63875555 38.61617778 86.25493333 86.25493334 86.25493333h154.02097778a136.45368889 136.45368889 0 0 0-36.32924445-65.18328888zM562.08497778 320.50346667H362.23431111c-15.07555555 0-27.30666667 12.23111111-27.30666666 27.30666667v344.45084444c0 15.07555555 12.23111111 27.30666667 27.30666666 27.30666667s27.30666667-12.23111111 27.30666667-27.30666667V601.78488889h172.544c77.55093333 0 140.64071111-63.08977778 140.64071111-140.64071111s-63.08977778-140.64071111-140.64071111-140.64071111z m0 226.66808889H389.54097778V375.1168h172.544c47.43395555 0 86.02737778 38.59342222 86.02737777 86.02737778s-38.59342222 86.02737778-86.02737777 86.02737778z" fill="#F26C38" /><path d="M562.08497778 306.85013334H362.23431111c-15.07555555 0-27.30666667 12.23111111-27.30666666 27.30666666v344.45084445c0 15.07555555 12.23111111 27.30666667 27.30666666 27.30666667s27.30666667-12.23111111 27.30666667-27.30666667V588.13155556h172.544c77.55093333 0 140.64071111-63.08977778 140.64071111-140.64071111s-63.08977778-140.64071111-140.64071111-140.64071111z m0 226.66808888H389.54097778V361.46346667h172.544c47.43395555 0 86.02737778 38.59342222 86.02737777 86.02737778s-38.59342222 86.02737778-86.02737777 86.02737777z" fill="#FFFFFF" /></svg>