<?xml version="1.0" standalone="no"?><!DOCTYPE svg PUBLIC "-//W3C//DTD SVG 1.1//EN" "http://www.w3.org/Graphics/SVG/1.1/DTD/svg11.dtd"><svg class="icon" width="64px" height="64.00px" viewBox="0 0 1024 1024" version="1.1" xmlns="http://www.w3.org/2000/svg"><path d="M679.55395952 4.0637787H237.9610302c-88.54090226 0-160.30599173 71.77643215-160.30599172 160.30599173v695.24911646c0 88.54090226 71.77643215 160.30599173 160.30599172 160.30599173h550.67541162c88.54090226 0 160.30599173-71.77643215 160.30599172-160.30599173V273.45225272c0-36.10372687-14.33713815-70.72156361-39.86949416-96.24257691l-133.27640294-133.27640295a136.13135365 136.13135365 0 0 0-96.24257692-39.86949416z" fill="#53B7F4" /><path d="M909.07293938 177.20967581l-133.27640294-133.27640295a136.11320536 136.11320536 0 0 0-70.04100324-37.31739282v149.58716613c0 47.49177014 38.49703078 85.98880089 85.9888009 85.98880091H945.29009298a136.08371441 136.08371441 0 0 0-36.2171536-64.98217127zM397.40497881 393.99083437c-10.62808421-10.62808421-27.86894656-10.62808421-38.49703076 0L243.14463159 509.74280816c-10.62808421 10.62808421-10.62808421 27.86894656 0 38.49703076L358.89660537 663.99181271a27.13053857 27.13053857 0 0 0 19.24851539 7.97389883c6.96440098 0 13.94014461-2.65418539 19.24851537-7.97389883 10.62808421-10.62808421 10.62808421-27.86894656 0-38.49703076l-96.50345838-96.5034584 96.50345838-96.50345841c10.63942689-10.62808421 10.63942689-27.86894656 0.01134268-38.49703077zM667.6781813 393.99083437c-10.62808421-10.62808421-27.86894656-10.62808421-38.49703075 0-10.62808421 10.62808421-10.62808421 27.86894656 0 38.49703077l96.50345838 96.50345841-96.50345838 96.5034584c-10.62808421 10.62808421-10.62808421 27.86894656 0 38.49703076 5.31971344 5.31971344 12.28411443 7.97389883 19.24851537 7.97389883s13.92880192-2.65418539 19.24851538-7.97389883L783.43015509 548.23983892c10.62808421-10.62808421 10.62808421-27.86894656 0-38.49703076L667.6781813 393.99083437zM573.63608284 340.15851025c-14.33713815-4.52572635-29.62706082 3.42548712-34.15278715 17.76262526l-104.28453179 330.33265389c-4.52572635 14.33713815 3.42548712 29.62706082 17.76262526 34.15278716 2.72224141 0.86204311 5.48985354 1.27037934 8.20075229 1.27037933 11.55818337 0 22.28835163-7.42945052 25.95203489-19.0330046L591.39870814 374.3112974c4.52572635-14.33713815-3.42548712-29.62706082-17.7626253-34.15278715z" fill="#29A3D3" /><path d="M397.40497881 380.37962726c-10.62808421-10.62808421-27.86894656-10.62808421-38.49703076 0L243.14463159 496.13160105c-10.62808421 10.62808421-10.62808421 27.86894656 0 38.49703076L358.89660537 650.38060562a27.13053857 27.13053857 0 0 0 19.24851539 7.97389882c6.96440098 0 13.94014461-2.65418539 19.24851537-7.97389882 10.62808421-10.62808421 10.62808421-27.86894656 0-38.49703076l-96.50345838-96.50345841 96.50345838-96.50345841c10.63942689-10.62808421 10.63942689-27.86894656 0.01134268-38.49703078zM783.44149777 496.13160105L667.6781813 380.37962726c-10.62808421-10.62808421-27.86894656-10.62808421-38.49703075 0-10.62808421 10.62808421-10.62808421 27.86894656 0 38.49703078l96.50345838 96.50345841-96.50345838 96.50345841c-10.62808421 10.62808421-10.62808421 27.86894656 0 38.49703076 5.31971344 5.31971344 12.28411443 7.97389883 19.24851537 7.97389882s13.92880192-2.65418539 19.24851538-7.97389882L783.43015509 534.62863181c10.63942689-10.62808421 10.63942689-27.85760388 0.01134268-38.49703076zM573.63608284 326.54730314c-14.33713815-4.52572635-29.62706082 3.42548712-34.15278715 17.76262527l-104.28453179 330.33265388c-4.52572635 14.33713815 3.42548712 29.62706082 17.76262526 34.15278716 2.72224141 0.86204311 5.48985354 1.27037934 8.20075229 1.27037932 11.55818337 0 22.28835163-7.42945052 25.95203489-19.03300459L591.39870814 360.70009031c4.52572635-14.33713815-3.42548712-29.62706082-17.7626253-34.15278717z" fill="#FFFFFF" /></svg>