<?xml version="1.0" standalone="no"?><!DOCTYPE svg PUBLIC "-//W3C//DTD SVG 1.1//EN" "http://www.w3.org/Graphics/SVG/1.1/DTD/svg11.dtd"><svg class="icon" width="64px" height="64.00px" viewBox="0 0 1024 1024" version="1.1" xmlns="http://www.w3.org/2000/svg"><path d="M680.07253333-2.8416H237.11288889c-88.81493333 0-160.80213333 71.99857778-160.80213334 160.80213334v697.40088888c0 88.81493333 71.99857778 160.80213333 160.80213334 160.80213334h552.37973333c88.81493333 0 160.80213333-71.99857778 160.80213333-160.80213334V267.38062222c0-36.21546667-14.38151111-70.94044445-39.99288888-96.54044444l-133.68888889-133.68888889a136.55267555 136.55267555 0 0 0-96.54044445-39.99288889z" fill="#4FD397" /><path d="M910.30186667 170.84017778l-133.68888889-133.68888889a136.53447111 136.53447111 0 0 0-70.25777778-37.43288889v150.05013334c0 47.63875555 38.61617778 86.25493333 86.25493333 86.25493333H946.63111111a136.50488889 136.50488889 0 0 0-36.32924444-65.18328889zM692.05333333 358.61902222H518.79253333a27.36583111 27.36583111 0 0 0-10.99093333 0H334.5408c-15.07555555 0-27.30666667 12.23111111-27.30666667 27.30666667s12.23111111 27.30666667 27.30666667 27.30666667h151.4496v294.37724444c0 15.07555555 12.23111111 27.30666667 27.30666667 27.30666667s27.30666667-12.23111111 27.30666666-27.30666667V413.23235556h151.4496c15.07555555 0 27.30666667-12.23111111 27.30666667-27.30666667s-12.23111111-27.30666667-27.30666667-27.30666667z" fill="#19BC6E" /><path d="M692.05333333 344.96568889H518.79253333a27.36583111 27.36583111 0 0 0-10.99093333 0H334.5408c-15.07555555 0-27.30666667 12.23111111-27.30666667 27.30666667s12.23111111 27.30666667 27.30666667 27.30666666h151.4496v294.37724445c0 15.07555555 12.23111111 27.30666667 27.30666667 27.30666667s27.30666667-12.23111111 27.30666666-27.30666667V399.57902222h151.4496c15.07555555 0 27.30666667-12.23111111 27.30666667-27.30666666s-12.23111111-27.30666667-27.30666667-27.30666667z" fill="#FFFFFF" /></svg>