<?xml version="1.0" standalone="no"?><!DOCTYPE svg PUBLIC "-//W3C//DTD SVG 1.1//EN" "http://www.w3.org/Graphics/SVG/1.1/DTD/svg11.dtd"><svg class="icon" width="64px" height="64.00px" viewBox="0 0 1024 1024" version="1.1" xmlns="http://www.w3.org/2000/svg"><path d="M679.55395952-1.26955463H237.9610302c-88.54090226 0-160.30599173 71.77643215-160.30599172 160.30599173v695.24911646c0 88.54090226 71.77643215 160.30599173 160.30599172 160.30599173h550.67541162c88.54090226 0 160.30599173-71.77643215 160.30599172-160.30599173V268.11891939c0-36.10372687-14.33713815-70.72156361-39.86949416-96.24257691l-133.27640294-133.27640295a136.13135365 136.13135365 0 0 0-96.24257692-39.86949416z" fill="#C7DADD" /><path d="M909.07293938 171.87634248l-133.27640294-133.27640295a136.11320536 136.11320536 0 0 0-70.04100324-37.31739282v149.58716613c0 47.49177014 38.49703078 85.98880089 85.9888009 85.98880091H945.29009298a136.08371441 136.08371441 0 0 0-36.2171536-64.98217127zM512.60116165 261.57419734c-93.12334196 0-168.89239488 75.76905291-168.8923949 168.89239487 0 14.21236876 11.51281268 25.72518144 25.72518145 25.72518142s25.72518144-11.51281268 25.72518143-25.72518142c0-64.75531783 52.68671419-117.442032 117.44203202-117.442032 31.33980436 0 60.81941043 12.22740105 83.01702069 34.42501131s34.42501131 51.68855899 34.42501129 83.01702069c0 23.94438185-7.1572264 46.97000721-20.68903478 66.59283079-13.24824158 19.19180203-31.63471385 33.90324839-53.19713446 42.51233685-42.09265799 16.82118346-69.2810442 56.59993623-69.28104418 101.32409426V642.77873775c0 14.21236876 11.51281268 25.72518144 25.72518144 25.72518144s25.72518144-11.51281268 25.72518143-25.72518144v-1.88288364c0-23.57007366 14.49593557-44.58804594 36.93174195-53.5487573 30.99952418-12.38619847 57.42795133-33.50625483 76.44961327-61.06894923 19.48671151-28.24325476 29.78585822-61.37520139 29.78585822-95.81155537 0-45.07578089-17.58114252-87.4860337-49.49942318-119.40431438-31.906938-31.906938-74.31719081-49.48808052-119.39297169-49.48808049z" fill="#9DC0C9" /><path d="M499.49283306 776.91674146a34.30024191 34.30024191 0 1 0 26.25226862-63.37858281 34.30024191 34.30024191 0 1 0-26.25226862 63.37858281Z" fill="#9DC0C9" /><path d="M632.68603636 297.17884659c-31.91828068-31.91828068-74.31719081-49.49942319-119.39297167-49.49942319-93.12334196 0-168.89239488 75.76905291-168.8923949 168.89239487 0 14.21236876 11.51281268 25.72518144 25.72518145 25.72518144s25.72518144-11.51281268 25.72518143-25.72518144c0-64.75531783 52.68671419-117.442032 117.44203202-117.442032 31.33980436 0 60.81941043 12.22740105 83.01702068 34.42501134s34.42501131 51.68855899 34.42501131 83.01702066c0 23.94438185-7.1572264 46.97000721-20.6890348 66.59283079-13.24824158 19.19180203-31.63471385 33.90324839-53.19713445 42.51233688-42.09265799 16.82118346-69.2810442 56.59993623-69.28104418 101.32409423v1.88288368c0 14.21236876 11.51281268 25.72518144 25.72518144 25.72518143s25.72518144-11.51281268 25.72518142-25.72518143v-1.88288368c0-23.57007366 14.49593557-44.58804594 36.93174193-53.54875729 30.99952418-12.38619847 57.42795133-33.50625483 76.44961328-61.06894922 19.48671151-28.24325476 29.78585822-61.37520139 29.78585823-95.81155539 0-45.07578089-17.58114252-87.47469102-49.49942319-119.39297168z" fill="#FFFFFF" /><path d="M513.29306469 731.35366802m-34.30024192 0a34.30024191 34.30024191 0 1 0 68.60048382 0 34.30024191 34.30024191 0 1 0-68.60048382 0Z" fill="#FFFFFF" /></svg>