<?xml version="1.0" standalone="no"?><!DOCTYPE svg PUBLIC "-//W3C//DTD SVG 1.1//EN" "http://www.w3.org/Graphics/SVG/1.1/DTD/svg11.dtd"><svg class="icon" width="64px" height="64.00px" viewBox="0 0 1024 1024" version="1.1" xmlns="http://www.w3.org/2000/svg"><path d="M3.75466667 788.93511111V236.544c0-88.86044445 72.02133333-160.768 160.768-160.768h697.344c88.86044445 0 160.768 72.02133333 160.768 160.768v552.39111111c0 88.86044445-72.02133333 160.768-160.768 160.768H164.63644445c-88.86044445 0-160.88177778-72.02133333-160.88177778-160.768z" fill="#8B72F7" /><path d="M563.54133333 392.07822222H279.89333333c-25.14488889 0-45.51111111 20.36622222-45.51111111 45.51111111v177.37955556c0 25.14488889 20.36622222 45.51111111 45.51111111 45.51111111h283.648c25.14488889 0 45.51111111-20.36622222 45.51111112-45.51111111V437.58933333c0-25.03111111-20.36622222-45.51111111-45.51111112-45.51111111zM770.048 399.01866667L674.70222222 488.10666667c-22.18666667 20.70755555-22.18666667 55.75111111 0 76.45866666l95.34577778 89.088c16.15644445 15.13244445 42.66666667 3.64088889 42.66666667-18.432V417.45066667c0-22.07288889-26.51022222-33.56444445-42.66666667-18.432z" fill="#7463EA" /><path d="M563.54133333 378.42488889H279.89333333c-25.14488889 0-45.51111111 20.36622222-45.51111111 45.51111111v177.37955555c0 25.14488889 20.36622222 45.51111111 45.51111111 45.51111112h283.648c25.14488889 0 45.51111111-20.36622222 45.51111112-45.51111112V423.936c0-25.03111111-20.36622222-45.51111111-45.51111112-45.51111111zM770.048 385.36533333L674.70222222 474.45333333c-22.18666667 20.70755555-22.18666667 55.75111111 0 76.45866667l95.34577778 89.088c16.15644445 15.13244445 42.66666667 3.64088889 42.66666667-18.432V403.79733333c0-22.07288889-26.51022222-33.56444445-42.66666667-18.432z" fill="#FFFFFF" /></svg>