<svg t="1649513657862" viewBox="0 0 1024 1024" version="1.1" xmlns="http://www.w3.org/2000/svg" p-id="1712" xmlns:xlink="http://www.w3.org/1999/xlink"><defs><style type="text/css"></style></defs><path d="M553.948279 55.153116a48.580465 48.580465 0 0 0-30.684279 11.121117L258.714791 294.816744H73.013581c-40.20986 0-72.489674 32.279814-72.489674 71.953861L0 679.995535c0 39.685953 32.803721 72.477767 73.013581 72.477767H261.35814l260.834232 205.288186a46.734884 46.734884 0 0 0 30.684279 11.097303c25.373767 0 48.663814-19.57507 48.663814-48.128l1.047814-817.413954c0.559628-28.600558-23.242419-48.163721-48.64-48.163721z m-24.349767 816.354233L305.806884 695.331721a71.930047 71.930047 0 0 0-44.436837-15.336186H71.95386l1.059721-312.689116 185.70121-0.512c17.467535 0 33.863442-6.370233 47.092093-17.467535l224.851349-194.16707-1.059721 716.347535z m0 0" p-id="1713" fill="#ffffff"></path><path d="M1012.950326 624.568558c14.57414 14.57414 14.764651 38.018977 0.416744 52.366884-14.347907 14.347907-37.792744 14.169302-52.366884-0.404837L683.901023 399.431442c-14.57414-14.57414-14.764651-38.018977-0.416744-52.366884 14.347907-14.347907 37.792744-14.157395 52.366884 0.416744l277.099163 277.087256z m0 0" p-id="1714" fill="#ffffff"></path><path d="M960.988279 347.481302c14.57414-14.57414 38.018977-14.764651 52.366884-0.416744 14.347907 14.347907 14.157395 37.792744-0.416744 52.366884L735.851163 676.518698c-14.57414 14.57414-38.018977 14.764651-52.366884 0.404837-14.347907-14.347907-14.169302-37.792744 0.404837-52.366884l277.099163-277.075349z m0 0" p-id="1715" fill="#ffffff"></path></svg>