<?xml version="1.0" standalone="no"?><!DOCTYPE svg PUBLIC "-//W3C//DTD SVG 1.1//EN" "http://www.w3.org/Graphics/SVG/1.1/DTD/svg11.dtd"><svg class="icon" width="64px" height="64.00px" viewBox="0 0 1024 1024" version="1.1" xmlns="http://www.w3.org/2000/svg"><path d="M678.88924445-3.11466666H235.9296c-88.81493333 0-160.80213333 71.99857778-160.80213333 160.80213333v697.40088889c0 88.81493333 71.99857778 160.80213333 160.80213333 160.80213333h552.37973333c88.81493333 0 160.80213333-71.99857778 160.80213334-160.80213333V267.09617778c0-36.21546667-14.38151111-70.94044445-39.99288889-96.54044444l-133.68888889-133.68888889a136.54243555 136.54243555 0 0 0-96.54044444-39.98151111z" fill="#53D39C" /><path d="M675.25973333 366.5152c-10.66097778-10.66097778-27.9552-10.66097778-38.61617778 0L510.63466667 492.52408889 384.62577778 366.5152c-10.66097778-10.66097778-27.9552-10.66097778-38.61617778 0-10.66097778 10.66097778-10.66097778 27.9552 0 38.61617778l126.00888889 126.00888889L345.99822222 657.14915556c-10.66097778 10.66097778-10.66097778 27.9552 0 38.61617778 5.33617778 5.33617778 12.32213333 7.99857778 19.30808889 7.99857778s13.97191111-2.6624 19.30808889-7.99857778L510.63466667 569.75644445 636.63217778 695.76533334c5.33617778 5.33617778 12.32213333 7.99857778 19.30808889 7.99857778s13.97191111-2.6624 19.30808888-7.99857778c10.66097778-10.66097778 10.66097778-27.9552 0-38.61617778L549.25084445 531.14026667l126.00888888-126.00888889c10.66097778-10.66097778 10.66097778-27.9552 0-38.61617778zM909.11857778 170.55573334l-133.68888889-133.68888889a136.53447111 136.53447111 0 0 0-70.25777778-37.43288889v150.05013333c0 47.63875555 38.61617778 86.25493333 86.25493334 86.25493333h154.02097777a136.59932445 136.59932445 0 0 0-36.32924444-65.18328888z" fill="#25BF79" /><path d="M549.25084445 517.48693334l126.00888888-126.00888889c10.66097778-10.66097778 10.66097778-27.9552 0-38.61617778-10.66097778-10.66097778-27.9552-10.66097778-38.61617778 0L510.63466667 478.87075556 384.62577778 352.86186667c-10.66097778-10.66097778-27.9552-10.66097778-38.61617778 0-10.66097778 10.66097778-10.66097778 27.9552 0 38.61617778l126.00888889 126.00888889L345.99822222 643.49582222c-10.66097778 10.66097778-10.66097778 27.9552 0 38.61617778 5.33617778 5.33617778 12.32213333 7.99857778 19.30808889 7.99857778s13.97191111-2.6624 19.30808889-7.99857778L510.63466667 556.10311112 636.63217778 682.112c5.33617778 5.33617778 12.32213333 7.99857778 19.30808889 7.99857778s13.97191111-2.6624 19.30808888-7.99857778c10.66097778-10.66097778 10.66097778-27.9552 0-38.61617778L549.25084445 517.48693334z" fill="#FFFFFF" /></svg>