<?xml version="1.0" standalone="no"?><!DOCTYPE svg PUBLIC "-//W3C//DTD SVG 1.1//EN" "http://www.w3.org/Graphics/SVG/1.1/DTD/svg11.dtd"><svg class="icon" width="64px" height="64.00px" viewBox="0 0 1024 1024" version="1.1" xmlns="http://www.w3.org/2000/svg"><path d="M679.00302222-2.61404444H236.04337778c-88.81493333 0-160.80213333 71.99857778-160.80213333 160.80213333v697.40088889c0 88.81493333 71.99857778 160.80213333 160.80213333 160.80213334h552.37973333c88.81493333 0 160.80213333-71.99857778 160.80213334-160.80213334V267.5968c0-36.21546667-14.38151111-70.94044445-39.9928889-96.54044444l-133.68888888-133.68888889a136.54243555 136.54243555 0 0 0-96.54044445-39.98151111z" fill="#53B7F4" /><path d="M666.56711111 334.464c-15.07555555 0-27.30666667 12.23111111-27.30666666 27.30666667v257.4336l-107.34933334-106.14328889c-10.61546667-10.49031111-27.69351111-10.52444445-38.33173333-0.05688889l-108.38471111 106.496V361.01973334c0-15.07555555-12.23111111-27.30666667-27.30666667-27.30666667s-27.30666667 12.23111111-27.30666667 27.30666667V684.61511112c0 11.00231111 6.59911111 20.92373333 16.74808889 25.17902222a27.30894222 27.30894222 0 0 0 29.696-5.70026667L512.65991111 570.83733334l134.71288889 133.19964444a27.29870222 27.29870222 0 0 0 19.20568889 7.8848c3.53848889 0 7.11111111-0.69404445 10.51306666-2.10488889a27.30666667 27.30666667 0 0 0 16.78222223-25.20177777V361.77066667c0-15.07555555-12.21973333-27.30666667-27.30666667-27.30666667zM909.23235555 171.05635556l-133.68888888-133.68888889a136.53447111 136.53447111 0 0 0-70.25777778-37.43288889v150.05013334c0 47.63875555 38.61617778 86.25493333 86.25493333 86.25493333h154.02097778a136.50488889 136.50488889 0 0 0-36.32924445-65.18328889z" fill="#29A3D3" /><path d="M666.57848889 698.26844445c-7.05422222 0-13.99466667-2.73066667-19.20568889-7.8848L512.65991111 557.184 377.02542222 690.44053334a27.29528889 27.29528889 0 0 1-29.696 5.70026666 27.29756445 27.29756445 0 0 1-16.74808889-25.17902222V347.3664c0-15.07555555 12.23111111-27.30666667 27.30666667-27.30666666s27.30666667 12.23111111 27.30666667 27.30666666v258.49173334l108.38471111-106.496c10.6496-10.45617778 27.72764445-10.43342222 38.33173333 0.05688888l107.34933334 106.1432889V348.11733334c0-15.07555555 12.23111111-27.30666667 27.30666666-27.30666667s27.30666667 12.23111111 27.30666667 27.30666667V670.96177778c0 11.01368889-6.62186667 20.95786667-16.78222223 25.20177778a27.43409778 27.43409778 0 0 1-10.51306666 2.10488889z" fill="#FFFFFF" /></svg>